<mxfile host="app.diagrams.net" modified="2022-08-05T02:26:33.809Z" agent="5.0 (Windows NT 10.0; Win64; x64) AppleWebKit/537.36 (KHTML, like Gecko) Chrome/104.0.0.0 Safari/537.36" etag="C4SrEwAeowIt48Ui26QA" version="16.4.3" type="github">
  <diagram id="C5RBs43oDa-KdzZeNtuy" name="Page-1">
    <mxGraphModel dx="2249" dy="1931" grid="1" gridSize="10" guides="1" tooltips="1" connect="1" arrows="1" fold="1" page="1" pageScale="1" pageWidth="827" pageHeight="1169" math="0" shadow="0">
      <root>
        <mxCell id="WIyWlLk6GJQsqaUBKTNV-0" />
        <mxCell id="WIyWlLk6GJQsqaUBKTNV-1" parent="WIyWlLk6GJQsqaUBKTNV-0" />
        <mxCell id="RJGZW5vNADiljtBDb6SS-3" style="edgeStyle=orthogonalEdgeStyle;rounded=0;orthogonalLoop=1;jettySize=auto;html=1;entryX=0;entryY=0.5;entryDx=0;entryDy=0;" edge="1" parent="WIyWlLk6GJQsqaUBKTNV-1" source="RJGZW5vNADiljtBDb6SS-0" target="RJGZW5vNADiljtBDb6SS-2">
          <mxGeometry relative="1" as="geometry" />
        </mxCell>
        <mxCell id="RJGZW5vNADiljtBDb6SS-0" value="ccRCC&lt;br&gt;自测芯片" style="ellipse;whiteSpace=wrap;html=1;" vertex="1" parent="WIyWlLk6GJQsqaUBKTNV-1">
          <mxGeometry x="-710" y="-170" width="120" height="80" as="geometry" />
        </mxCell>
        <mxCell id="RJGZW5vNADiljtBDb6SS-4" style="edgeStyle=orthogonalEdgeStyle;rounded=0;orthogonalLoop=1;jettySize=auto;html=1;entryX=1.008;entryY=0.65;entryDx=0;entryDy=0;entryPerimeter=0;" edge="1" parent="WIyWlLk6GJQsqaUBKTNV-1" source="RJGZW5vNADiljtBDb6SS-1" target="RJGZW5vNADiljtBDb6SS-2">
          <mxGeometry relative="1" as="geometry" />
        </mxCell>
        <mxCell id="RJGZW5vNADiljtBDb6SS-1" value="GEO&lt;br&gt;已有ccRCC" style="ellipse;whiteSpace=wrap;html=1;" vertex="1" parent="WIyWlLk6GJQsqaUBKTNV-1">
          <mxGeometry x="-506" y="-170" width="120" height="80" as="geometry" />
        </mxCell>
        <mxCell id="RJGZW5vNADiljtBDb6SS-44" value="" style="edgeStyle=orthogonalEdgeStyle;rounded=0;orthogonalLoop=1;jettySize=auto;html=1;" edge="1" parent="WIyWlLk6GJQsqaUBKTNV-1" source="RJGZW5vNADiljtBDb6SS-2" target="RJGZW5vNADiljtBDb6SS-40">
          <mxGeometry relative="1" as="geometry" />
        </mxCell>
        <mxCell id="RJGZW5vNADiljtBDb6SS-2" value="差异 circRNA 求交集" style="rounded=1;whiteSpace=wrap;html=1;" vertex="1" parent="WIyWlLk6GJQsqaUBKTNV-1">
          <mxGeometry x="-600" y="-50" width="120" height="60" as="geometry" />
        </mxCell>
        <mxCell id="RJGZW5vNADiljtBDb6SS-34" style="edgeStyle=orthogonalEdgeStyle;rounded=0;orthogonalLoop=1;jettySize=auto;html=1;exitX=0.5;exitY=1;exitDx=0;exitDy=0;" edge="1" parent="WIyWlLk6GJQsqaUBKTNV-1" source="RJGZW5vNADiljtBDb6SS-5">
          <mxGeometry relative="1" as="geometry">
            <mxPoint x="-540" y="380" as="targetPoint" />
          </mxGeometry>
        </mxCell>
        <mxCell id="RJGZW5vNADiljtBDb6SS-5" value="特定 circRNA 分子" style="rounded=1;whiteSpace=wrap;html=1;" vertex="1" parent="WIyWlLk6GJQsqaUBKTNV-1">
          <mxGeometry x="-600" y="290" width="120" height="60" as="geometry" />
        </mxCell>
        <mxCell id="RJGZW5vNADiljtBDb6SS-42" style="edgeStyle=orthogonalEdgeStyle;rounded=0;orthogonalLoop=1;jettySize=auto;html=1;exitX=0;exitY=0.5;exitDx=0;exitDy=0;" edge="1" parent="WIyWlLk6GJQsqaUBKTNV-1" source="RJGZW5vNADiljtBDb6SS-7">
          <mxGeometry relative="1" as="geometry">
            <mxPoint x="-460" y="150" as="targetPoint" />
          </mxGeometry>
        </mxCell>
        <mxCell id="RJGZW5vNADiljtBDb6SS-7" value="ccRCC 致癌基因/抑癌基因" style="rounded=1;whiteSpace=wrap;html=1;" vertex="1" parent="WIyWlLk6GJQsqaUBKTNV-1">
          <mxGeometry x="-370" y="120" width="120" height="60" as="geometry" />
        </mxCell>
        <mxCell id="RJGZW5vNADiljtBDb6SS-43" style="edgeStyle=orthogonalEdgeStyle;rounded=0;orthogonalLoop=1;jettySize=auto;html=1;exitX=0;exitY=0.5;exitDx=0;exitDy=0;" edge="1" parent="WIyWlLk6GJQsqaUBKTNV-1" source="RJGZW5vNADiljtBDb6SS-10">
          <mxGeometry relative="1" as="geometry">
            <mxPoint x="-460" y="150" as="targetPoint" />
            <Array as="points">
              <mxPoint x="-410" y="220" />
              <mxPoint x="-410" y="150" />
            </Array>
          </mxGeometry>
        </mxCell>
        <mxCell id="RJGZW5vNADiljtBDb6SS-10" value="其他特定基因&lt;br&gt;（例如铜死亡）" style="rounded=1;whiteSpace=wrap;html=1;" vertex="1" parent="WIyWlLk6GJQsqaUBKTNV-1">
          <mxGeometry x="-370" y="190" width="120" height="60" as="geometry" />
        </mxCell>
        <mxCell id="RJGZW5vNADiljtBDb6SS-41" style="edgeStyle=orthogonalEdgeStyle;rounded=0;orthogonalLoop=1;jettySize=auto;html=1;exitX=0;exitY=0.5;exitDx=0;exitDy=0;entryX=1;entryY=0.5;entryDx=0;entryDy=0;" edge="1" parent="WIyWlLk6GJQsqaUBKTNV-1" source="RJGZW5vNADiljtBDb6SS-19" target="RJGZW5vNADiljtBDb6SS-27">
          <mxGeometry relative="1" as="geometry" />
        </mxCell>
        <mxCell id="RJGZW5vNADiljtBDb6SS-19" value="癌症相关 GO/KEGG" style="rounded=1;whiteSpace=wrap;html=1;" vertex="1" parent="WIyWlLk6GJQsqaUBKTNV-1">
          <mxGeometry x="-370" y="50" width="120" height="60" as="geometry" />
        </mxCell>
        <mxCell id="RJGZW5vNADiljtBDb6SS-25" value="circRNA-miRNA-mRNA" style="rounded=1;whiteSpace=wrap;html=1;dashed=1;" vertex="1" parent="WIyWlLk6GJQsqaUBKTNV-1">
          <mxGeometry x="-600" y="120" width="120" height="60" as="geometry" />
        </mxCell>
        <mxCell id="RJGZW5vNADiljtBDb6SS-26" value="circRNA-RBP" style="rounded=1;whiteSpace=wrap;html=1;dashed=1;" vertex="1" parent="WIyWlLk6GJQsqaUBKTNV-1">
          <mxGeometry x="-600" y="190" width="120" height="60" as="geometry" />
        </mxCell>
        <mxCell id="RJGZW5vNADiljtBDb6SS-46" value="" style="edgeStyle=orthogonalEdgeStyle;rounded=0;orthogonalLoop=1;jettySize=auto;html=1;" edge="1" parent="WIyWlLk6GJQsqaUBKTNV-1" source="RJGZW5vNADiljtBDb6SS-27" target="RJGZW5vNADiljtBDb6SS-5">
          <mxGeometry relative="1" as="geometry" />
        </mxCell>
        <mxCell id="RJGZW5vNADiljtBDb6SS-27" value="" style="rounded=1;whiteSpace=wrap;html=1;dashed=1;fillColor=none;" vertex="1" parent="WIyWlLk6GJQsqaUBKTNV-1">
          <mxGeometry x="-620" y="40" width="160" height="220" as="geometry" />
        </mxCell>
        <mxCell id="RJGZW5vNADiljtBDb6SS-38" value="实验验证" style="rounded=1;whiteSpace=wrap;html=1;fillColor=none;" vertex="1" parent="WIyWlLk6GJQsqaUBKTNV-1">
          <mxGeometry x="-600" y="380" width="120" height="60" as="geometry" />
        </mxCell>
        <mxCell id="RJGZW5vNADiljtBDb6SS-56" style="edgeStyle=orthogonalEdgeStyle;rounded=0;orthogonalLoop=1;jettySize=auto;html=1;exitX=0.5;exitY=1;exitDx=0;exitDy=0;entryX=0.5;entryY=0;entryDx=0;entryDy=0;" edge="1" parent="WIyWlLk6GJQsqaUBKTNV-1" source="RJGZW5vNADiljtBDb6SS-39" target="RJGZW5vNADiljtBDb6SS-54">
          <mxGeometry relative="1" as="geometry" />
        </mxCell>
        <mxCell id="RJGZW5vNADiljtBDb6SS-39" value="GEO ccRCC&lt;br&gt;RNA-seq &lt;br&gt;大样品" style="ellipse;whiteSpace=wrap;html=1;fillColor=none;" vertex="1" parent="WIyWlLk6GJQsqaUBKTNV-1">
          <mxGeometry x="130" y="-150" width="120" height="80" as="geometry" />
        </mxCell>
        <mxCell id="RJGZW5vNADiljtBDb6SS-40" value="host gene" style="rounded=1;whiteSpace=wrap;html=1;fillColor=none;dashed=1;" vertex="1" parent="WIyWlLk6GJQsqaUBKTNV-1">
          <mxGeometry x="-600" y="50" width="120" height="60" as="geometry" />
        </mxCell>
        <mxCell id="RJGZW5vNADiljtBDb6SS-48" value="" style="rounded=0;whiteSpace=wrap;html=1;dashed=1;fillColor=none;" vertex="1" parent="WIyWlLk6GJQsqaUBKTNV-1">
          <mxGeometry x="-370" y="50" width="200" height="200" as="geometry" />
        </mxCell>
        <mxCell id="RJGZW5vNADiljtBDb6SS-49" value="TCGA &lt;br&gt;分析" style="rounded=0;whiteSpace=wrap;html=1;dashed=1;fillColor=none;" vertex="1" parent="WIyWlLk6GJQsqaUBKTNV-1">
          <mxGeometry x="-230" y="70" width="60" height="60" as="geometry" />
        </mxCell>
        <mxCell id="RJGZW5vNADiljtBDb6SS-51" value="免疫&lt;br&gt;微环境" style="rounded=0;whiteSpace=wrap;html=1;dashed=1;fillColor=none;" vertex="1" parent="WIyWlLk6GJQsqaUBKTNV-1">
          <mxGeometry x="-230" y="180" width="60" height="60" as="geometry" />
        </mxCell>
        <mxCell id="RJGZW5vNADiljtBDb6SS-58" value="" style="edgeStyle=orthogonalEdgeStyle;rounded=0;orthogonalLoop=1;jettySize=auto;html=1;" edge="1" parent="WIyWlLk6GJQsqaUBKTNV-1" source="RJGZW5vNADiljtBDb6SS-54" target="RJGZW5vNADiljtBDb6SS-57">
          <mxGeometry relative="1" as="geometry" />
        </mxCell>
        <mxCell id="RJGZW5vNADiljtBDb6SS-54" value="mRNA/circRNA 表达分析" style="rounded=1;whiteSpace=wrap;html=1;fillColor=none;" vertex="1" parent="WIyWlLk6GJQsqaUBKTNV-1">
          <mxGeometry x="130" y="-30" width="120" height="60" as="geometry" />
        </mxCell>
        <mxCell id="RJGZW5vNADiljtBDb6SS-55" value="ccRCC&lt;br&gt;自测芯片" style="ellipse;whiteSpace=wrap;html=1;" vertex="1" parent="WIyWlLk6GJQsqaUBKTNV-1">
          <mxGeometry x="380" y="-40" width="120" height="80" as="geometry" />
        </mxCell>
        <mxCell id="RJGZW5vNADiljtBDb6SS-57" value="相关性分析/&lt;br&gt;WGCNA" style="rounded=1;whiteSpace=wrap;html=1;fillColor=none;" vertex="1" parent="WIyWlLk6GJQsqaUBKTNV-1">
          <mxGeometry x="130" y="110" width="120" height="60" as="geometry" />
        </mxCell>
      </root>
    </mxGraphModel>
  </diagram>
</mxfile>
